# xmcd
#
# Track frame offsets:
#	150
#	11404
#	25282
#	40412
#	52959
#	72150
#	84534
#	98267
#	110883
#	124530
#
# Disc length: 1898 seconds
#
# Revision: 0
# Processed by: cddbd v1.4PL0 Copyright (c) Steve Scherf et al.
# Submitted via: dBpowerAMP V4.0
#
DISCID=7607680a
DTITLE=James Cane - James Cane
DYEAR=1900
DGENRE=Country
TTITLE0=Dirt Poor
TTITLE1=Nothin'll Crush A Man
TTITLE2=Time Waits For No One
TTITLE3=Shadow On Any Doubt
TTITLE4=Truth Is
TTITLE5=Right Where I Went Wrong
TTITLE6=Perfect Night For Love
TTITLE7=Without Your Love
TTITLE8=My Father Depends On His Son
TTITLE9=Nobody's Fool
EXTD=
EXTT0=
EXTT1=
EXTT2=
EXTT3=
EXTT4=
EXTT5=
EXTT6=
EXTT7=
EXTT8=
EXTT9=
PLAYORDER=
